<?xml version="1.0" encoding="UTF-8"?>
<svg xmlns="http://www.w3.org/2000/svg" xmlns:xlink="http://www.w3.org/1999/xlink" width="30px" height="30px" viewBox="0 0 30 30" version="1.1">
<g id="surface1">
<path style=" stroke:none;fill-rule:nonzero;fill:rgb(25.882354%,64.705884%,96.078432%);fill-opacity:1;" d="M 19.015625 0 L 21.464844 3.792969 L 25.980469 4.015625 L 26.207031 8.527344 L 30 10.980469 L 27.941406 15 L 30 19.015625 L 26.207031 21.464844 L 25.984375 25.980469 L 21.472656 26.207031 L 19.019531 30 L 15 27.941406 L 10.984375 30 L 8.535156 26.207031 L 4.019531 25.984375 L 3.792969 21.472656 L 0 19.019531 L 2.058594 15 L 0 10.984375 L 3.792969 8.535156 L 4.015625 4.019531 L 8.527344 3.792969 L 10.980469 0 L 15 2.058594 Z M 19.015625 0 "/>
<path style=" stroke:none;fill-rule:nonzero;fill:rgb(100%,100%,100%);fill-opacity:1;" d="M 13.144531 20.179688 L 8.5 15.542969 L 10.015625 14.027344 L 13.164062 17.179688 L 20 10.550781 L 21.484375 12.09375 Z M 13.144531 20.179688 "/>
</g>
</svg>
